<svg version="1.1" id="Layer_1" xmlns="http://www.w3.org/2000/svg" xmlns:xlink="http://www.w3.org/1999/xlink" x="0px" y="0px"
	 width="100%" viewBox="0 0 2860 2855" enable-background="new 0 0 2860 2855" xml:space="preserve">
<path fill="#F2F2F2" opacity="1.000000" stroke="none" 
	d="
M1802.000000,2858.000000 
	C1201.333496,2858.000000 601.666870,2858.000000 2.000241,2858.000000 
	C2.000161,1906.000244 2.000161,954.000549 2.000081,2.000625 
	C955.332825,2.000416 1908.665649,2.000416 2861.999023,2.000208 
	C2861.999268,953.999329 2861.999268,1905.998657 2861.999512,2857.999023 
	C2509.000000,2858.000000 2156.000000,2858.000000 1802.000000,2858.000000 
M804.631531,907.385986 
	C915.037964,984.214905 1025.486328,1060.983887 1135.762085,1137.999878 
	C1143.595215,1143.470459 1151.516479,1145.587036 1160.874023,1145.567139 
	C1246.813354,1145.384155 1332.753296,1145.471069 1418.692993,1145.422119 
	C1422.657593,1145.419922 1426.622070,1144.873657 1431.542725,1146.164429 
	C1431.772217,1148.135742 1432.201904,1150.106934 1432.202637,1152.078369 
	C1432.237183,1242.272339 1432.260498,1332.466187 1432.124023,1422.660034 
	C1432.119507,1425.708130 1430.462646,1428.753784 1427.793335,1431.531372 
	C1423.795044,1431.505981 1419.796753,1431.459229 1415.798462,1431.458740 
	C1372.140259,1431.453247 1328.481934,1431.434082 1284.823730,1431.476318 
	C1277.728638,1431.483276 1271.195068,1430.628906 1264.996704,1426.294678 
	C1206.028198,1385.062012 1146.907471,1344.046631 1087.831055,1302.968262 
	C1013.986694,1251.621460 940.120972,1200.305298 866.349670,1148.853882 
	C861.710876,1145.618530 857.033203,1144.341064 851.468811,1144.347168 
	C762.152832,1144.444824 672.836609,1144.409912 583.520508,1144.443848 
	C580.632507,1144.444946 577.744690,1144.856934 574.576782,1145.098633 
	C574.576782,1240.715698 574.576782,1335.532593 574.576782,1431.631104 
	C578.701538,1431.631104 582.261169,1431.631104 585.820801,1431.631104 
	C632.811768,1431.631226 679.802979,1431.708740 726.793274,1431.534668 
	C732.759521,1431.512573 737.504272,1433.113403 742.433411,1436.547119 
	C870.622681,1525.851685 999.071716,1614.784912 1126.992676,1704.471436 
	C1140.896240,1714.219482 1154.374878,1718.196655 1171.124512,1718.080566 
	C1258.101929,1717.477295 1345.086426,1717.873413 1432.198242,1719.804199 
	C1432.211548,1752.721558 1432.250366,1785.639038 1432.232422,1818.556396 
	C1432.198730,1880.400513 1432.132080,1942.244507 1430.216309,2003.738647 
	C1381.230225,2003.700928 1332.243530,2003.528809 1283.258667,2003.763916 
	C1275.513550,2003.801025 1269.212769,2001.783813 1262.926025,1997.366211 
	C1220.955566,1967.873047 1178.822388,1938.611084 1136.709106,1909.321777 
	C1047.011353,1846.938354 957.268982,1784.619263 867.653748,1722.117676 
	C862.990601,1718.865356 858.442566,1717.543701 852.879028,1717.550415 
	C763.568665,1717.657227 674.258057,1717.620605 584.947571,1717.645996 
	C581.705627,1717.646851 578.463806,1717.946533 575.416321,1718.097290 
	C573.221191,1728.743896 573.540344,1995.557617 575.840759,2003.775879 
	C579.207947,2003.775879 582.817322,2003.775879 586.426636,2003.775879 
	C625.416687,2003.775879 664.406677,2003.750610 703.396729,2003.792847 
	C713.717773,2003.804077 724.754150,2001.773560 734.161743,2004.767090 
	C743.905579,2007.867554 752.070801,2015.930420 760.923645,2021.827026 
	C762.032349,2022.565552 763.127686,2023.324707 764.221741,2024.085083 
	C815.099915,2059.441406 865.985779,2094.786621 916.852966,2130.158447 
	C991.236816,2181.883057 1065.629028,2233.595459 1139.931030,2285.437012 
	C1144.558228,2288.665527 1149.191528,2289.989746 1154.769531,2289.982910 
	C1244.079834,2289.874268 1333.390381,2289.912354 1422.700806,2289.880615 
	C1425.598755,2289.879639 1428.496338,2289.492920 1432.393188,2289.214600 
	C1432.393188,2284.664307 1432.393188,2280.738770 1432.393188,2276.813232 
	C1432.393188,2189.502197 1432.399170,2102.191162 1432.372925,2014.880249 
	C1432.371826,2011.227051 1432.071655,2007.573975 1433.796631,2003.897095 
	C1484.777832,2003.857666 1535.759155,2003.754028 1586.739746,2003.911499 
	C1590.474121,2003.922974 1594.832153,2004.907837 1597.840088,2006.979492 
	C1645.567261,2039.851562 1693.137817,2072.951416 1740.710815,2106.047119 
	C1826.560669,2165.770996 1912.406372,2225.500977 1998.173950,2285.342773 
	C2002.782593,2288.558350 2007.375977,2289.995117 2012.977417,2289.988037 
	C2102.612549,2289.874023 2192.248047,2289.913330 2281.883301,2289.881592 
	C2284.775146,2289.880371 2287.666748,2289.494873 2290.378418,2289.301270 
	C2292.519531,2277.168457 2292.012695,2011.484985 2289.723145,2003.624756 
	C2286.336914,2003.624756 2282.710693,2003.624756 2279.084717,2003.624756 
	C2232.434326,2003.624512 2185.783936,2003.553955 2139.134033,2003.715698 
	C2133.527344,2003.735107 2128.865723,2002.371460 2124.291504,1999.167847 
	C2096.192871,1979.488770 2067.960938,1960.000732 2039.803223,1940.406250 
	C1935.642944,1867.922485 1831.476685,1795.447266 1727.391479,1722.855835 
	C1721.940063,1719.053955 1716.457886,1717.494629 1709.801270,1717.507690 
	C1620.499512,1717.682617 1531.197388,1717.619873 1441.895264,1717.643555 
	C1438.574219,1717.644409 1435.253296,1717.924805 1432.280151,1716.216797 
	C1432.316650,1623.419922 1432.357178,1530.623169 1432.361206,1437.826294 
	C1432.361328,1435.855591 1431.940674,1433.884766 1433.625488,1431.828613 
	C1484.937744,1431.764038 1536.250366,1431.762939 1587.561890,1431.535522 
	C1592.626343,1431.513062 1596.463501,1433.411865 1600.356689,1436.124878 
	C1633.693726,1459.356567 1667.080322,1482.517334 1700.437378,1505.720337 
	C1799.687134,1574.757812 1898.943726,1643.785400 1998.135010,1712.906616 
	C2002.979858,1716.282837 2007.810059,1717.903931 2013.826294,1717.892700 
	C2102.793701,1717.726562 2191.761230,1717.783203 2280.728760,1717.758179 
	C2283.965332,1717.757324 2287.201660,1717.461304 2291.002930,1717.275269 
	C2291.002930,1621.794678 2291.002930,1527.028076 2291.002930,1431.266113 
	C2286.607178,1431.024048 2282.731689,1430.628662 2278.855713,1430.625122 
	C2232.206055,1430.582031 2185.556152,1430.536621 2138.906982,1430.671753 
	C2133.024902,1430.688843 2128.025879,1429.514038 2123.065674,1426.050659 
	C2047.695923,1373.427246 1972.213745,1320.965088 1896.761230,1268.460449 
	C1839.897705,1228.891235 1782.999268,1189.371826 1726.241455,1149.651489 
	C1720.756592,1145.812988 1715.277466,1144.298340 1708.647705,1144.310181 
	C1621.013306,1144.466919 1533.378540,1144.419556 1445.743774,1144.401245 
	C1441.082153,1144.400269 1436.420410,1144.203491 1432.234985,1142.251953 
	C1432.286621,1140.590942 1432.383057,1138.929932 1432.383301,1137.268921 
	C1432.391235,1047.496338 1432.394775,957.723694 1432.375122,867.951050 
	C1432.374634,865.299927 1432.125000,862.648804 1432.156250,858.951050 
	C1432.073364,858.607727 1431.990601,858.264465 1433.764526,858.292664 
	C1483.757935,858.335449 1533.751709,858.479370 1583.744263,858.295349 
	C1590.126587,858.271790 1595.230347,860.040161 1600.338867,863.638855 
	C1627.845947,883.016907 1655.494141,902.194397 1683.112549,921.414185 
	C1742.175293,962.516357 1801.217651,1003.647949 1860.336426,1044.669556 
	C1881.395630,1059.282227 1902.651489,1073.611572 1924.504517,1089.136108 
	C1926.302124,1090.186523 1928.099854,1091.236938 1930.624878,1093.398315 
	C1943.692749,1102.287720 1956.760620,1111.177124 1970.517944,1121.129150 
	C1972.312256,1122.178345 1974.106567,1123.227539 1976.631104,1125.386108 
	C1982.906494,1129.779297 1989.430908,1133.862427 1995.389160,1138.650269 
	C2001.705566,1143.725830 2008.469116,1145.607666 2016.585571,1145.588257 
	C2103.246826,1145.380859 2189.908936,1145.470947 2276.570801,1145.422729 
	C2280.540527,1145.420532 2284.509766,1144.882935 2289.005859,1144.931885 
	C2289.482910,1144.827148 2289.740234,1144.530884 2290.522705,1142.509399 
	C2290.884521,1137.872314 2291.558105,1133.235474 2291.561523,1128.598145 
	C2291.624512,1042.686279 2291.620361,956.774353 2291.563965,870.862427 
	C2291.561523,867.250854 2290.916260,863.639709 2290.645508,859.167786 
	C2289.842285,859.040466 2289.039062,858.913208 2286.365479,858.428040 
	C2236.495850,858.378845 2186.625977,858.324890 2136.756348,858.301331 
	C2135.106201,858.300537 2133.456299,858.607239 2130.984619,858.466187 
	C2130.984619,858.466187 2130.109375,858.502991 2128.950439,857.716248 
	C2114.176514,847.458679 2099.393066,837.214722 2084.630127,826.941467 
	C1965.424927,743.987976 1846.205811,661.054504 1727.075684,577.993347 
	C1721.366821,574.012878 1715.742310,572.100342 1708.652100,572.118408 
	C1621.344238,572.340271 1534.035645,572.256775 1446.727173,572.285156 
	C1443.074219,572.286377 1439.421387,572.610718 1434.862915,572.500610 
	C1434.238525,573.007446 1433.614136,573.514282 1432.462646,575.819946 
	C1432.388550,609.725159 1432.290405,643.630310 1432.245850,677.535583 
	C1432.166626,737.703735 1432.119873,797.871887 1431.103516,858.354248 
	C1430.801147,858.499634 1430.498657,858.645081 1428.331665,858.428589 
	C1380.361084,858.373413 1332.389160,858.122131 1284.420898,858.435486 
	C1275.293457,858.495056 1267.896118,856.261414 1260.423218,851.004883 
	C1209.764404,815.370361 1158.846313,780.104309 1108.014893,744.715332 
	C1049.805542,704.189697 991.636597,663.606079 933.373535,623.157898 
	C909.594421,606.649658 885.614380,590.430786 861.157959,573.217651 
	C860.192444,573.072021 859.226990,572.926331 856.386841,572.427002 
	C854.723633,572.373657 853.060486,572.273804 851.397278,572.273621 
	C762.507385,572.264954 673.617554,572.258484 584.727661,572.290771 
	C581.751099,572.291870 578.774597,572.693665 575.154297,572.777222 
	C574.654358,572.992004 574.498352,573.354919 574.198730,575.699585 
	C574.132996,577.693298 574.009888,579.687073 574.009705,581.680786 
	C573.999878,670.497986 573.997375,759.315186 574.018127,848.132385 
	C574.018738,850.784912 574.277161,853.437439 574.422546,857.058777 
	C574.718384,857.754944 575.241943,858.058289 577.844055,858.308167 
	C622.349365,858.345703 666.859497,858.761414 711.357300,858.203003 
	C725.719421,858.022766 739.067871,858.750916 750.021301,869.285706 
	C750.464233,869.711731 751.218994,869.813477 752.518005,871.129028 
	C754.312378,872.178345 756.106750,873.227661 758.631409,875.386230 
	C771.697083,884.279602 784.762817,893.172974 798.518005,903.129089 
	C800.312378,904.178406 802.106750,905.227661 804.631531,907.385986 
z"/>
<path fill="#C1A263" opacity="1.000000" stroke="none" 
	d="
M1429.575928,1431.800537 
	C1430.462646,1428.753784 1432.119507,1425.708130 1432.124023,1422.660034 
	C1432.260498,1332.466187 1432.237183,1242.272339 1432.202637,1152.078369 
	C1432.201904,1150.106934 1431.772217,1148.135742 1431.237915,1145.257812 
	C1430.933105,1144.351196 1431.758789,1144.097778 1431.758789,1144.097778 
	C1436.420410,1144.203491 1441.082153,1144.400269 1445.743774,1144.401245 
	C1533.378540,1144.419556 1621.013306,1144.466919 1708.647705,1144.310181 
	C1715.277466,1144.298340 1720.756592,1145.812988 1726.241455,1149.651489 
	C1782.999268,1189.371826 1839.897705,1228.891235 1896.761230,1268.460449 
	C1972.213745,1320.965088 2047.695923,1373.427246 2123.065674,1426.050659 
	C2128.025879,1429.514038 2133.024902,1430.688843 2138.906982,1430.671753 
	C2185.556152,1430.536621 2232.206055,1430.582031 2278.855713,1430.625122 
	C2282.731689,1430.628662 2286.607178,1431.024048 2291.002930,1431.266113 
	C2291.002930,1527.028076 2291.002930,1621.794678 2291.002930,1717.275269 
	C2287.201660,1717.461304 2283.965332,1717.757324 2280.728760,1717.758179 
	C2191.761230,1717.783203 2102.793701,1717.726562 2013.826294,1717.892700 
	C2007.810059,1717.903931 2002.979858,1716.282837 1998.135010,1712.906616 
	C1898.943726,1643.785400 1799.687134,1574.757812 1700.437378,1505.720337 
	C1667.080322,1482.517334 1633.693726,1459.356567 1600.356689,1436.124878 
	C1596.463501,1433.411865 1592.626343,1431.513062 1587.561890,1431.535522 
	C1536.250366,1431.762939 1484.937744,1431.764038 1432.135620,1431.868164 
	C1430.289185,1431.871948 1429.932495,1431.836304 1429.575928,1431.800537 
z"/>
<path fill="#C1A262" opacity="1.000000" stroke="none" 
	d="
M1923.817627,1088.070312 
	C1902.651489,1073.611572 1881.395630,1059.282227 1860.336426,1044.669556 
	C1801.217651,1003.647949 1742.175293,962.516357 1683.112549,921.414185 
	C1655.494141,902.194397 1627.845947,883.016907 1600.338867,863.638855 
	C1595.230347,860.040161 1590.126587,858.271790 1583.744263,858.295349 
	C1533.751709,858.479370 1483.757935,858.335449 1432.872925,858.138611 
	C1431.981323,857.984558 1432.059448,858.040039 1432.059570,858.040039 
	C1432.119873,797.871887 1432.166626,737.703735 1432.245850,677.535583 
	C1432.290405,643.630310 1432.388550,609.725159 1433.114868,574.872009 
	C1434.434204,573.544189 1435.101318,573.164368 1435.768433,572.784546 
	C1439.421387,572.610718 1443.074219,572.286377 1446.727173,572.285156 
	C1534.035645,572.256775 1621.344238,572.340271 1708.652100,572.118408 
	C1715.742310,572.100342 1721.366821,574.012878 1727.075684,577.993347 
	C1846.205811,661.054504 1965.424927,743.987976 2084.630127,826.941467 
	C2099.393066,837.214722 2114.176514,847.458679 2129.680664,858.335205 
	C2130.411133,858.954163 2131.134766,859.183899 2131.134766,859.183899 
	C2131.134766,859.183899 2131.806152,858.770569 2131.806152,858.770569 
	C2133.456299,858.607239 2135.106201,858.300537 2136.756348,858.301331 
	C2186.625977,858.324890 2236.495850,858.378845 2287.531982,858.861084 
	C2289.322510,859.538818 2289.946533,859.783569 2290.570557,860.028320 
	C2290.916260,863.639709 2291.561523,867.250854 2291.563965,870.862427 
	C2291.620361,956.774353 2291.624512,1042.686279 2291.561523,1128.598145 
	C2291.558105,1133.235474 2290.884521,1137.872314 2289.921631,1143.338867 
	C2289.320557,1144.168213 2288.479248,1144.594849 2288.479248,1144.594849 
	C2284.509766,1144.882935 2280.540527,1145.420532 2276.570801,1145.422729 
	C2189.908936,1145.470947 2103.246826,1145.380859 2016.585571,1145.588257 
	C2008.469116,1145.607666 2001.705566,1143.725830 1995.389160,1138.650269 
	C1989.430908,1133.862427 1982.906494,1129.779297 1976.187256,1124.112549 
	C1973.771729,1121.914795 1971.800049,1120.990601 1969.828491,1120.066406 
	C1956.760620,1111.177124 1943.692749,1102.287720 1930.183594,1092.122314 
	C1927.767456,1089.920898 1925.792480,1088.995605 1923.817627,1088.070312 
z"/>
<path fill="#C1A262" opacity="1.000000" stroke="none" 
	d="
M1428.684570,1431.666016 
	C1429.932495,1431.836304 1430.289185,1431.871948 1431.180908,1431.910889 
	C1431.940674,1433.884766 1432.361328,1435.855591 1432.361206,1437.826294 
	C1432.357178,1530.623169 1432.316650,1623.419922 1432.140381,1717.107666 
	C1432.000732,1717.998657 1432.068359,1717.921631 1432.068359,1717.921631 
	C1345.086426,1717.873413 1258.101929,1717.477295 1171.124512,1718.080566 
	C1154.374878,1718.196655 1140.896240,1714.219482 1126.992676,1704.471436 
	C999.071716,1614.784912 870.622681,1525.851685 742.433411,1436.547119 
	C737.504272,1433.113403 732.759521,1431.512573 726.793274,1431.534668 
	C679.802979,1431.708740 632.811768,1431.631226 585.820801,1431.631104 
	C582.261169,1431.631104 578.701538,1431.631104 574.576782,1431.631104 
	C574.576782,1335.532593 574.576782,1240.715698 574.576782,1145.098633 
	C577.744690,1144.856934 580.632507,1144.444946 583.520508,1144.443848 
	C672.836609,1144.409912 762.152832,1144.444824 851.468811,1144.347168 
	C857.033203,1144.341064 861.710876,1145.618530 866.349670,1148.853882 
	C940.120972,1200.305298 1013.986694,1251.621460 1087.831055,1302.968262 
	C1146.907471,1344.046631 1206.028198,1385.062012 1264.996704,1426.294678 
	C1271.195068,1430.628906 1277.728638,1431.483276 1284.823730,1431.476318 
	C1328.481934,1431.434082 1372.140259,1431.453247 1415.798462,1431.458740 
	C1419.796753,1431.459229 1423.795044,1431.505981 1428.684570,1431.666016 
z"/>
<path fill="#C1A262" opacity="1.000000" stroke="none" 
	d="
M1432.079102,2004.088623 
	C1432.132080,1942.244507 1432.198730,1880.400513 1432.232422,1818.556396 
	C1432.250366,1785.639038 1432.211548,1752.721558 1432.133301,1718.862915 
	C1432.068359,1717.921631 1432.000732,1717.998657 1431.966553,1718.036743 
	C1435.253296,1717.924805 1438.574219,1717.644409 1441.895264,1717.643555 
	C1531.197388,1717.619873 1620.499512,1717.682617 1709.801270,1717.507690 
	C1716.457886,1717.494629 1721.940063,1719.053955 1727.391479,1722.855835 
	C1831.476685,1795.447266 1935.642944,1867.922485 2039.803223,1940.406250 
	C2067.960938,1960.000732 2096.192871,1979.488770 2124.291504,1999.167847 
	C2128.865723,2002.371460 2133.527344,2003.735107 2139.134033,2003.715698 
	C2185.783936,2003.553955 2232.434326,2003.624512 2279.084717,2003.624756 
	C2282.710693,2003.624756 2286.336914,2003.624756 2289.723145,2003.624756 
	C2292.012695,2011.484985 2292.519531,2277.168457 2290.378418,2289.301270 
	C2287.666748,2289.494873 2284.775146,2289.880371 2281.883301,2289.881592 
	C2192.248047,2289.913330 2102.612549,2289.874023 2012.977417,2289.988037 
	C2007.375977,2289.995117 2002.782593,2288.558350 1998.173950,2285.342773 
	C1912.406372,2225.500977 1826.560669,2165.770996 1740.710815,2106.047119 
	C1693.137817,2072.951416 1645.567261,2039.851562 1597.840088,2006.979492 
	C1594.832153,2004.907837 1590.474121,2003.922974 1586.739746,2003.911499 
	C1535.759155,2003.754028 1484.777832,2003.857666 1432.897217,2003.949463 
	C1431.997803,2004.001831 1432.079102,2004.088623 1432.079102,2004.088623 
z"/>
<path fill="#C1A262" opacity="1.000000" stroke="none" 
	d="
M1431.996826,1143.174805 
	C1431.758789,1144.097778 1430.933105,1144.351196 1430.759766,1144.465942 
	C1426.622070,1144.873657 1422.657593,1145.419922 1418.692993,1145.422119 
	C1332.753296,1145.471069 1246.813354,1145.384155 1160.874023,1145.567139 
	C1151.516479,1145.587036 1143.595215,1143.470459 1135.762085,1137.999878 
	C1025.486328,1060.983887 915.037964,984.214905 804.187378,906.112488 
	C801.771606,903.914795 799.800049,902.990601 797.828491,902.066345 
	C784.762817,893.172974 771.697083,884.279602 758.187317,874.112671 
	C755.771667,871.914856 753.800049,870.990601 751.828491,870.066345 
	C751.218994,869.813477 750.464233,869.711731 750.021301,869.285706 
	C739.067871,858.750916 725.719421,858.022766 711.357300,858.203003 
	C666.859497,858.761414 622.349365,858.345703 576.746338,857.755127 
	C575.345154,856.712036 574.934143,856.341309 574.415405,856.089966 
	C574.277161,853.437439 574.018738,850.784912 574.018127,848.132385 
	C573.997375,759.315186 573.999878,670.497986 574.009705,581.680786 
	C574.009888,579.687073 574.132996,577.693298 574.656433,574.660706 
	C575.114136,573.621826 575.798096,572.908691 575.798096,572.908691 
	C578.774597,572.693665 581.751099,572.291870 584.727661,572.290771 
	C673.617554,572.258484 762.507385,572.264954 851.397278,572.273621 
	C853.060486,572.273804 854.723633,572.373657 857.678711,572.916687 
	C859.889038,573.630981 860.807373,573.855591 861.725769,574.080200 
	C885.614380,590.430786 909.594421,606.649658 933.373535,623.157898 
	C991.636597,663.606079 1049.805542,704.189697 1108.014893,744.715332 
	C1158.846313,780.104309 1209.764404,815.370361 1260.423218,851.004883 
	C1267.896118,856.261414 1275.293457,858.495056 1284.420898,858.435486 
	C1332.389160,858.122131 1380.361084,858.373413 1429.507080,858.883667 
	C1431.067383,859.660706 1431.503784,859.880310 1431.991577,859.997681 
	C1432.125000,862.648804 1432.374634,865.299927 1432.375122,867.951050 
	C1432.394775,957.723694 1432.391235,1047.496338 1432.383301,1137.268921 
	C1432.383057,1138.929932 1432.286621,1140.590942 1431.996826,1143.174805 
z"/>
<path fill="#C1A262" opacity="1.000000" stroke="none" 
	d="
M1431.954346,2003.961304 
	C1432.071655,2007.573975 1432.371826,2011.227051 1432.372925,2014.880249 
	C1432.399170,2102.191162 1432.393188,2189.502197 1432.393188,2276.813232 
	C1432.393188,2280.738770 1432.393188,2284.664307 1432.393188,2289.214600 
	C1428.496338,2289.492920 1425.598755,2289.879639 1422.700806,2289.880615 
	C1333.390381,2289.912354 1244.079834,2289.874268 1154.769531,2289.982910 
	C1149.191528,2289.989746 1144.558228,2288.665527 1139.931030,2285.437012 
	C1065.629028,2233.595459 991.236816,2181.883057 916.852966,2130.158447 
	C865.985779,2094.786621 815.099915,2059.441406 764.221741,2024.085083 
	C763.127686,2023.324707 762.032349,2022.565552 760.923645,2021.827026 
	C752.070801,2015.930420 743.905579,2007.867554 734.161743,2004.767090 
	C724.754150,2001.773560 713.717773,2003.804077 703.396729,2003.792847 
	C664.406677,2003.750610 625.416687,2003.775879 586.426636,2003.775879 
	C582.817322,2003.775879 579.207947,2003.775879 575.840759,2003.775879 
	C573.540344,1995.557617 573.221191,1728.743896 575.416321,1718.097290 
	C578.463806,1717.946533 581.705627,1717.646851 584.947571,1717.645996 
	C674.258057,1717.620605 763.568665,1717.657227 852.879028,1717.550415 
	C858.442566,1717.543701 862.990601,1718.865356 867.653748,1722.117676 
	C957.268982,1784.619263 1047.011353,1846.938354 1136.709106,1909.321777 
	C1178.822388,1938.611084 1220.955566,1967.873047 1262.926025,1997.366211 
	C1269.212769,2001.783813 1275.513550,2003.801025 1283.258667,2003.763916 
	C1332.243530,2003.528809 1381.230225,2003.700928 1431.147705,2003.913574 
	C1432.079102,2004.088623 1431.997803,2004.001831 1431.954346,2003.961304 
z"/>
<path fill="#C1A263" opacity="1.000000" stroke="none" 
	d="
M752.173218,870.597656 
	C753.800049,870.990601 755.771667,871.914856 757.822144,873.558044 
	C756.106750,873.227661 754.312378,872.178345 752.173218,870.597656 
z"/>
<path fill="#C1A263" opacity="1.000000" stroke="none" 
	d="
M1970.173218,1120.597778 
	C1971.800049,1120.990601 1973.771729,1121.914795 1975.822021,1123.557861 
	C1974.106567,1123.227539 1972.312256,1122.178345 1970.173218,1120.597778 
z"/>
<path fill="#C1A263" opacity="1.000000" stroke="none" 
	d="
M1924.161133,1088.603271 
	C1925.792480,1088.995605 1927.767456,1089.920898 1929.819824,1091.566772 
	C1928.099854,1091.236938 1926.302124,1090.186523 1924.161133,1088.603271 
z"/>
<path fill="#C1A263" opacity="1.000000" stroke="none" 
	d="
M798.173218,902.597717 
	C799.800049,902.990601 801.771606,903.914795 803.822144,905.557983 
	C802.106750,905.227661 800.312378,904.178406 798.173218,902.597717 
z"/>
<path fill="#C1A263" opacity="1.000000" stroke="none" 
	d="
M2290.607910,859.598022 
	C2289.946533,859.783569 2289.322510,859.538818 2288.467285,859.039978 
	C2289.039062,858.913208 2289.842285,859.040466 2290.607910,859.598022 
z"/>
<path fill="#C1A263" opacity="1.000000" stroke="none" 
	d="
M1435.315674,572.642578 
	C1435.101318,573.164368 1434.434204,573.544189 1433.378418,573.972595 
	C1433.614136,573.514282 1434.238525,573.007446 1435.315674,572.642578 
z"/>
<path fill="#C1A263" opacity="1.000000" stroke="none" 
	d="
M861.441895,573.648926 
	C860.807373,573.855591 859.889038,573.630981 858.616089,573.093506 
	C859.226990,572.926331 860.192444,573.072021 861.441895,573.648926 
z"/>
<path fill="#C1A263" opacity="1.000000" stroke="none" 
	d="
M2131.395508,858.618408 
	C2131.806152,858.770569 2131.134766,859.183899 2131.134766,859.183899 
	C2131.134766,859.183899 2130.411133,858.954163 2130.260254,858.728577 
	C2130.109375,858.502991 2130.984619,858.466187 2131.395508,858.618408 
z"/>
<path fill="#C1A263" opacity="1.000000" stroke="none" 
	d="
M1432.073975,859.474365 
	C1431.503784,859.880310 1431.067383,859.660706 1430.439331,859.064697 
	C1430.498657,858.645081 1430.801147,858.499634 1431.581543,858.197144 
	C1432.059448,858.040039 1431.981323,857.984558 1431.944580,857.952881 
	C1431.990601,858.264465 1432.073364,858.607727 1432.073975,859.474365 
z"/>
<path fill="#C1A263" opacity="1.000000" stroke="none" 
	d="
M574.418945,856.574341 
	C574.934143,856.341309 575.345154,856.712036 575.820923,857.585510 
	C575.241943,858.058289 574.718384,857.754944 574.418945,856.574341 
z"/>
<path fill="#C1A263" opacity="1.000000" stroke="none" 
	d="
M2288.742676,1144.763428 
	C2288.479248,1144.594849 2289.320557,1144.168213 2289.549316,1144.105469 
	C2289.740234,1144.530884 2289.482910,1144.827148 2288.742676,1144.763428 
z"/>
<path fill="#C1A263" opacity="1.000000" stroke="none" 
	d="
M575.476196,572.842957 
	C575.798096,572.908691 575.114136,573.621826 574.900269,573.743958 
	C574.498352,573.354919 574.654358,572.992004 575.476196,572.842957 
z"/>
</svg>